# xmcd
# 
# Track frame offsets:
#     150
#     19010
#     36652
#     58204
#     74277
#     90287
#     107955
#     130435
#     146278
#     166530
#     182691
#     200144
#     218101
#     239185
#     258348
#     276449
#     289620
#     308674
# 
# Disc length: 4399
# 
# Revision: 3
# Processed by: cddbd v1.5.2PL0 Copyright (c) Steve Scherf et al.
# Submitted via: fre:ac v1.0.17
# 
DISCID=15112d12
DTITLE=Love Songs - The All Time Greatest Love Songs - CD2
DYEAR=2000
DGENRE=Pop
TTITLE0=Lionel Richie
TTITLE1=Craig David
TTITLE2=Barry White
TTITLE3=Shania Twain
TTITLE4=Boyzone
TTITLE5=Boyz II Men
TTITLE6=Toni Braxton
TTITLE7=S Club 7
TTITLE8=a1
TTITLE9=Jennifer Lopez
TTITLE10=Billy Ocean
TTITLE11=Wet Wet Wet
TTITLE12=Anastacia
TTITLE13=Michael Bolton
TTITLE14=Ruby Turner
TTITLE15=Stevie Wonder
TTITLE16=Mandy Moore
TTITLE17=Abba
EXTD=
EXTT0=
EXTT1=
EXTT2=
EXTT3=
EXTT4=
EXTT5=
EXTT6=
EXTT7=
EXTT8=
EXTT9=
EXTT10=
EXTT11=
EXTT12=
EXTT13=
EXTT14=
EXTT15=
EXTT16=
EXTT17=
PLAYORDER=
